<svg xmlns="http://www.w3.org/2000/svg" xmlns:xlink="http://www.w3.org/1999/xlink" width="12px" height="12px" viewBox="0 0 12 12" version="1.1">
<path fill="#1A1919" fill-rule="evenodd" d="M 11.875 5.785156 L 9.007812 4.128906 C 8.886719 4.0625 8.738281 4.101562 8.667969 4.21875 C 8.601562 4.335938 8.640625 4.488281 8.757812 4.554688 L 10.835938 5.753906 L 0.246094 5.753906 C 0.109375 5.753906 0 5.863281 0 6 C 0 6.136719 0.109375 6.246094 0.246094 6.246094 L 10.832031 6.246094 L 8.757812 7.445312 C 8.640625 7.511719 8.601562 7.664062 8.667969 7.78125 C 8.714844 7.859375 8.796875 7.902344 8.882812 7.902344 C 8.925781 7.902344 8.96875 7.894531 9.007812 7.871094 L 11.875 6.214844 C 11.953125 6.167969 12 6.089844 12 6 C 12 5.910156 11.953125 5.832031 11.875 5.785156 Z M 11.875 5.785156 "/>
</svg>
