<svg width="31" height="34" viewBox="0 0 31 34" fill="none" xmlns="http://www.w3.org/2000/svg">
<path d="M15.5838 7.28001C16.7288 7.28001 17.8041 7.48001 18.8095 7.88001C19.8149 8.28001 20.6946 8.84001 21.4487 9.56001C22.2027 10.28 22.7892 11.12 23.2081 12.08C23.627 13.04 23.8365 14.0667 23.8365 15.16C23.8365 16.2533 23.627 17.2667 23.2081 18.2C22.7892 19.1333 22.2027 19.9733 21.4487 20.72C20.6946 21.4667 19.8149 22.0267 18.8095 22.4C17.8041 22.7733 16.7288 22.9867 15.5838 23.04C14.4387 23.0933 13.3635 22.88 12.3581 22.4C11.3527 21.92 10.4869 21.36 9.76081 20.72C9.03469 20.08 8.4482 19.24 8.00135 18.2C7.5545 17.16 7.33108 16.1467 7.33108 15.16C7.33108 14.1733 7.5545 13.1467 8.00135 12.08C8.4482 11.0133 9.03469 10.1733 9.76081 9.56001C10.4869 8.94668 11.3527 8.38668 12.3581 7.88001C13.3635 7.37334 14.4387 7.17334 15.5838 7.28001ZM15.5838 20.24C16.3099 20.24 16.9941 20.1067 17.6365 19.84C18.2788 19.5733 18.8514 19.2133 19.3541 18.76C19.8568 18.3067 20.2338 17.76 20.4851 17.12C20.7365 16.48 20.8761 15.8267 20.9041 15.16C20.932 14.4933 20.7923 13.8267 20.4851 13.16C20.1779 12.4933 19.8009 11.9467 19.3541 11.52C18.9072 11.0933 18.3347 10.7333 17.6365 10.44C16.9383 10.1467 16.2541 10.0133 15.5838 10.04C14.9135 10.0667 14.2293 10.2 13.5311 10.44C12.8329 10.68 12.2604 11.04 11.8135 11.52C11.3667 12 10.9896 12.5467 10.6824 13.16C10.3752 13.7733 10.2356 14.44 10.2635 15.16C10.2914 15.88 10.4311 16.5333 10.6824 17.12C10.9338 17.7067 11.3108 18.2533 11.8135 18.76C12.3162 19.2667 12.8887 19.6267 13.5311 19.84C14.1734 20.0533 14.8577 20.1867 15.5838 20.24ZM31 7.68001C31.2514 12.6667 31.2514 17.6533 31 22.64C30.9441 23.6 30.7068 24.5067 30.2878 25.36C29.8689 26.2133 29.3243 26.96 28.6541 27.6C27.9838 28.24 27.1878 28.7733 26.2662 29.2C25.3446 29.6267 24.395 29.8533 23.4176 29.88C22.105 29.9333 20.8063 29.9733 19.5216 30C18.2369 30.0267 16.9243 30.04 15.5838 30.04C14.2432 30.04 12.9446 30.0267 11.6878 30C10.4311 29.9733 9.11847 29.9333 7.75 29.88C6.7446 29.8267 5.79505 29.6 4.90135 29.2C4.00766 28.8 3.22568 28.2667 2.55541 27.6C1.88514 26.9333 1.32658 26.1867 0.87973 25.36C0.432883 24.5333 0.195496 23.6267 0.167568 22.64C-0.0558559 17.6533 -0.0558559 12.6667 0.167568 7.68001C0.223423 6.72001 0.460811 5.81334 0.87973 4.96001C1.29865 4.10668 1.85721 3.34668 2.55541 2.68001C3.2536 2.01334 4.03559 1.49334 4.90135 1.12001C5.76712 0.746676 6.71667 0.52001 7.75 0.44001C12.9725 0.20001 18.195 0.20001 23.4176 0.44001C24.423 0.493343 25.3725 0.72001 26.2662 1.12001C27.1599 1.52001 27.9559 2.04001 28.6541 2.68001C29.3523 3.32001 29.8968 4.08001 30.2878 4.96001C30.6788 5.84001 30.9162 6.74668 31 7.68001ZM28.0676 22.48C28.3189 17.6 28.3189 12.7067 28.0676 7.80001C28.0396 7.21334 27.886 6.65334 27.6068 6.12001C27.3275 5.58668 26.9784 5.10668 26.5595 4.68001C26.1405 4.25334 25.6378 3.90668 25.0514 3.64001C24.4649 3.37334 23.8784 3.22668 23.2919 3.20001C22.0072 3.14668 20.7225 3.10668 19.4378 3.08001C18.1532 3.05334 16.8685 3.04001 15.5838 3.04001C14.2991 3.04001 13.0144 3.05334 11.7297 3.08001C10.445 3.10668 9.16036 3.14668 7.87568 3.20001C7.26126 3.22668 6.67478 3.37334 6.11622 3.64001C5.55766 3.90668 5.06892 4.25334 4.65 4.68001C4.23108 5.10668 3.86802 5.58668 3.56081 6.12001C3.2536 6.65334 3.1 7.21334 3.1 7.80001C2.84865 12.7067 2.84865 17.6133 3.1 22.52C3.12793 23.1067 3.28153 23.6667 3.56081 24.2C3.84009 24.7333 4.20315 25.2 4.65 25.6C5.09685 26 5.58559 26.3467 6.11622 26.64C6.64685 26.9333 7.23333 27.08 7.87568 27.08C13.0144 27.32 18.1532 27.32 23.2919 27.08C23.9063 27.0533 24.4928 26.9067 25.0514 26.64C25.6099 26.3733 26.1126 26.0267 26.5595 25.6C27.0063 25.1733 27.3554 24.6933 27.6068 24.16C27.8581 23.6267 28.0117 23.0667 28.0676 22.48ZM23.8365 5.52001C24.3392 5.52001 24.7721 5.69334 25.1351 6.04001C25.4982 6.38668 25.6797 6.80001 25.6797 7.28001C25.6797 7.76001 25.4982 8.17334 25.1351 8.52001C24.7721 8.86668 24.3392 9.04001 23.8365 9.04001C23.3338 9.04001 22.9009 8.86668 22.5378 8.52001C22.1748 8.17334 21.9932 7.76001 21.9932 7.28001C21.9932 6.80001 22.1748 6.38668 22.5378 6.04001C22.9009 5.69334 23.3338 5.52001 23.8365 5.52001Z" fill="#1A1919"/>
</svg>
