<svg width="25" height="25" viewBox="0 0 25 25" fill="none" xmlns="http://www.w3.org/2000/svg">
<g clip-path="url(#clip0)">
<path d="M12.5 12.5C9.05383 12.5 6.25 9.69621 6.25 6.24998C6.25 2.80374 9.05383 0 12.5 0C15.9462 0 18.75 2.80379 18.75 6.25002C18.75 9.69626 15.9462 12.5 12.5 12.5ZM12.5 1.56252C9.9152 1.56252 7.81252 3.66515 7.81252 6.25002C7.81252 8.83489 9.91515 10.9375 12.5 10.9375C15.0849 10.9375 17.1875 8.83485 17.1875 6.25002C17.1875 3.6652 15.0848 1.56252 12.5 1.56252Z" fill="#1A1919"/>
<path d="M22.6563 25H2.34376C1.91192 25 1.5625 24.6506 1.5625 24.2187V18.8408C1.5625 18.0336 1.97524 17.2752 2.63902 16.8602C8.50601 13.2003 16.4994 13.2011 22.3603 16.8594C23.0248 17.2752 23.4376 18.0336 23.4376 18.8407V24.2187C23.4376 24.6506 23.0881 25 22.6563 25ZM3.12502 23.4375H21.875V18.8408C21.875 18.5684 21.7438 18.3166 21.5325 18.1847C16.1682 14.8361 8.8356 14.8338 3.46686 18.1854C3.25629 18.3167 3.12506 18.5684 3.12506 18.8408L3.12502 23.4375Z" fill="#1A1919"/>
</g>
<defs>
<clipPath id="clip0">
<rect width="25" height="25" fill="white"/>
</clipPath>
</defs>
</svg>
