<svg width="151" height="41" viewBox="0 0 151 41" fill="none" xmlns="http://www.w3.org/2000/svg">
<path fill-rule="evenodd" clip-rule="evenodd" d="M122.51 40.0328C118.205 40.0328 114.745 36.5094 114.745 32.2883C114.745 28.1409 118.205 24.6162 122.51 24.6162C126.815 24.6162 130.275 28.1409 130.275 32.2883C130.275 36.5094 126.815 40.0328 122.51 40.0328ZM122.51 27.8101C120.089 27.8101 118.166 29.8283 118.166 32.2883C118.166 34.8207 120.089 36.8763 122.51 36.8763C124.932 36.8763 126.854 34.8207 126.854 32.2883C126.854 29.8283 124.932 27.8101 122.51 27.8101ZM93.2085 40.0328C90.1707 40.0328 89.2871 38.2704 89.2871 35.6644V28.0297H87.6728C87.2493 28.0297 86.9421 27.7003 86.9421 27.3333V25.6808C86.9421 25.2777 87.2493 24.9831 87.6728 24.9831H89.2871V20.9093C89.2871 20.5424 89.6335 20.2116 90.0178 20.2116L92.2086 20.1754C92.5929 20.1754 92.9 20.5062 92.9 20.8731V24.9831H96.8214C97.2436 24.9831 97.5521 25.2777 97.5521 25.6808V27.3333C97.5521 27.7003 97.2436 28.0297 96.8214 28.0297H92.9V35.2975C92.9 36.5456 93.4007 36.7665 94.13 36.7665C94.9379 36.7665 96.0136 36.3259 96.475 36.105C96.6144 36.0443 96.7335 36.0171 96.835 36.0171C97.0975 36.0171 97.249 36.198 97.36 36.4357L98.0514 38.0508C98.2436 38.4539 98.0893 38.7485 97.705 38.932C97.3207 39.1516 95.0529 40.0328 93.2085 40.0328ZM61.4949 40.0328C57.4193 40.0328 54.3057 36.5456 54.3057 32.3245C54.3057 28.0297 57.6128 24.6162 61.8792 24.6162C63.8399 24.6162 65.2228 25.3139 65.5693 25.4237L65.4542 15.6779C65.4542 15.3109 65.7993 14.9814 66.1836 14.9814H68.4136C68.7978 14.9814 69.1442 15.3109 69.1442 15.6779L69.2593 38.9681C69.2593 39.3351 68.9142 39.6658 68.5299 39.6658H67.3757C67.0306 39.6658 66.7993 39.4087 66.6842 39.0418L66.3771 37.9771C66.3771 37.9771 64.5314 40.0328 61.4949 40.0328ZM62.2635 27.8101C59.6885 27.8101 57.8807 29.8283 57.8807 32.3245C57.8807 34.7845 59.4963 36.8763 61.9564 36.8763C64.3013 36.8763 65.4163 35.0778 65.6071 34.6734V28.6913C65.6071 28.6913 64.2621 27.8101 62.2635 27.8101ZM40.9813 40.0328C38.0977 40.0328 36.022 38.1606 36.022 35.114C36.022 32.4343 38.2506 30.38 42.172 30.38C43.7863 30.38 45.2099 30.8193 45.2099 30.8193C45.2477 28.5078 44.7863 27.5892 42.8256 27.5892C41.0571 27.5892 39.3277 28.0297 38.5199 28.2507C38.4536 28.2662 38.3914 28.2739 38.3332 28.2739C37.9854 28.2739 37.773 28.0091 37.6742 27.6628L37.367 26.3049C37.252 25.8281 37.5213 25.571 37.8663 25.4612C38.1356 25.3513 40.3277 24.6162 43.172 24.6162C48.0921 24.6162 48.5535 27.4793 48.5535 31.15V38.9681C48.5535 39.3351 48.2071 39.6658 47.8228 39.6658H46.747C46.4006 39.6658 46.2477 39.5186 46.0935 39.1516L45.7092 38.1606C44.8635 38.932 43.3642 40.0328 40.9813 40.0328ZM42.4792 32.6552C40.6349 32.6552 39.3656 33.5726 39.3656 35.0778C39.3656 36.3996 40.2885 37.4267 41.7106 37.4267C43.2492 37.4267 44.7092 36.3259 45.1706 35.592V33.2418C44.9406 33.0958 43.8635 32.6552 42.4792 32.6552ZM150.269 39.6658H148.079C147.656 39.6658 147.348 39.3351 147.348 38.9681V31.4433C147.348 29.0944 146.157 27.8101 144.157 27.8101C141.736 27.8101 140.083 29.4988 139.891 30.0117V38.9681C139.891 39.4462 139.661 39.6658 139.007 39.6658H137.007C136.623 39.6658 136.278 39.3351 136.278 38.9681V25.6808C136.278 25.3139 136.623 24.9831 137.007 24.9831H138.122C138.429 24.9831 138.661 25.1666 138.738 25.4237L139.199 26.6718C139.468 26.3785 141.505 24.6162 144.581 24.6162C149.271 24.6162 151 27.7739 151 31.5906V38.9681C151 39.3351 150.654 39.6658 150.269 39.6658ZM107.346 39.6658H105.155C104.771 39.6658 104.425 39.3351 104.425 38.9681V25.6808C104.425 25.3139 104.771 24.9831 105.155 24.9831H107.346C107.732 24.9831 108.077 25.3139 108.077 25.6808V38.9681C108.077 39.3351 107.732 39.6658 107.346 39.6658ZM79.7353 39.6658H77.5446C77.1603 39.6658 76.8139 39.3351 76.8139 38.9681V25.6808C76.8139 25.3139 77.1603 24.9831 77.5446 24.9831H79.7353C80.1196 24.9831 80.466 25.3139 80.466 25.6808V38.9681C80.466 39.3351 80.1196 39.6658 79.7353 39.6658ZM23.8721 39.6658H22.0265C21.6422 39.6658 21.2958 39.3351 21.2958 38.9681V25.6808C21.2958 25.3139 21.6422 24.9831 22.0265 24.9831H23.1414C23.4107 24.9831 23.7179 25.2041 23.795 25.4973L24.2172 26.7455C24.4865 26.3785 25.9086 24.6162 28.715 24.6162C30.1764 24.6162 31.9436 24.9831 31.5215 25.9741L30.5986 27.7739C30.466 28.0517 30.2414 28.1732 30.0019 28.1732C29.8936 28.1732 29.7827 28.1486 29.6758 28.1034C29.4457 27.9936 28.8693 27.8463 28.3686 27.8463C26.14 27.8463 25.0629 29.389 24.91 29.6448V38.9681C24.91 39.5922 24.4865 39.6658 23.8721 39.6658ZM10.2636 39.6658H7.72645C7.34215 39.6658 6.99575 39.3351 6.99575 38.9681V18.4312H0.730699C0.307165 18.4312 0 18.1004 0 17.7335V15.6779C0 15.3109 0.307165 14.9814 0.730699 14.9814H17.2593C17.6829 14.9814 17.99 15.3109 17.99 15.6779V17.7335C17.99 18.1004 17.6829 18.4312 17.2593 18.4312H10.9943V38.9681C10.9943 39.3351 10.6479 39.6658 10.2636 39.6658Z" fill="#1A1919"/>
<path fill-rule="evenodd" clip-rule="evenodd" d="M78.9609 22.8764C77.3463 22.8764 76.0852 21.7794 76.0852 20.43C76.0852 19.0391 77.1954 17.9421 78.81 17.9421C80.4743 17.9421 81.9379 19.0391 81.9379 20.43C81.9379 21.7794 80.6271 22.8764 78.9609 22.8764Z" fill="#1A1919"/>
<path fill-rule="evenodd" clip-rule="evenodd" d="M105.884 22.8764C104.269 22.8764 103.008 21.7794 103.008 20.43C103.008 19.0391 104.116 17.9421 105.733 17.9421C107.397 17.9421 108.861 19.0391 108.861 20.43C108.861 21.7794 107.55 22.8764 105.884 22.8764Z" fill="#1A1919"/>
<path d="M124.29 24.6692C123.275 23.9705 122.414 23.191 121.73 22.3511C120.649 21.0347 119.155 19.8661 117.337 18.9141C115.518 17.9621 113.411 17.2458 111.14 16.8077C109.154 16.4261 107.076 16.2642 105 16.3292C106.511 16.2755 107.999 16.5787 109.165 17.178C110.332 17.7773 111.091 18.6284 111.29 19.5608C111.836 21.5753 113.273 23.4559 115.44 24.9923C117.607 26.5287 120.418 27.6604 123.56 28.2612C127.153 28.9474 131.003 28.9104 134.56 28.1556C130.598 27.754 126.975 26.5241 124.29 24.6692Z" fill="#414042"/>
<path d="M100.531 18.2958C100.993 19.5563 101.805 20.7572 102.931 21.8443C102.109 21.0549 101.793 20.1027 102.044 19.1755C102.296 18.2482 103.098 17.4133 104.291 16.8353C106.826 15.5323 108.729 13.8175 109.789 11.8819C110.848 9.9464 111.022 7.86613 110.291 5.87279C109.457 3.59247 107.479 1.53594 104.641 0C106.054 2.34669 106.135 4.92283 104.871 7.30215C104.388 8.20041 103.715 9.05504 102.871 9.84392C101.576 11.0832 100.694 12.4713 100.276 13.9262C99.8588 15.3811 99.915 16.8733 100.441 18.3144L100.531 18.2958Z" fill="#414042"/>
<path d="M111.29 21.4673C110.61 22.3079 109.443 22.9576 108.024 23.286C106.606 23.6146 105.039 23.5975 103.64 23.2384C100.556 22.5202 97.2111 22.349 93.9795 22.7441C90.7478 23.1391 87.7566 24.0849 85.3401 25.4757C82.5848 27.0686 80.7148 29.1643 80 31.4604C82.5639 29.5263 86.1126 28.1933 90.06 27.6819C91.543 27.4933 93.058 27.4202 94.57 27.4644C96.9417 27.5408 99.3139 27.3211 101.547 26.8184C103.779 26.3156 105.827 25.54 107.57 24.5373C109.095 23.6572 110.361 22.6182 111.31 21.4673H111.29Z" fill="#414042"/>
</svg>
